<mxfile host="app.diagrams.net" modified="2021-11-23T14:37:36.449Z" agent="5.0 (X11)" etag="HU6VQoJNRM3S-3dmRSx2" version="15.8.2" type="github" pages="2">
  <diagram id="C5RBs43oDa-KdzZeNtuy" name="Page-1">
    <mxGraphModel dx="1422" dy="788" grid="1" gridSize="10" guides="1" tooltips="1" connect="1" arrows="1" fold="1" page="1" pageScale="1" pageWidth="827" pageHeight="1169" math="0" shadow="1">
      <root>
        <mxCell id="WIyWlLk6GJQsqaUBKTNV-0" />
        <mxCell id="WIyWlLk6GJQsqaUBKTNV-1" parent="WIyWlLk6GJQsqaUBKTNV-0" />
        <mxCell id="qsoDnjDD26J5uIRlczHR-3" style="edgeStyle=orthogonalEdgeStyle;rounded=0;orthogonalLoop=1;jettySize=auto;html=1;exitX=0.5;exitY=1;exitDx=0;exitDy=0;" edge="1" parent="WIyWlLk6GJQsqaUBKTNV-1" source="2BhynT_DfsQ55NkdQ-wV-0" target="qsoDnjDD26J5uIRlczHR-0">
          <mxGeometry relative="1" as="geometry" />
        </mxCell>
        <mxCell id="2BhynT_DfsQ55NkdQ-wV-0" value="MULA" style="ellipse;whiteSpace=wrap;html=1;" parent="WIyWlLk6GJQsqaUBKTNV-1" vertex="1">
          <mxGeometry x="545" y="30" width="120" height="40" as="geometry" />
        </mxCell>
        <mxCell id="2BhynT_DfsQ55NkdQ-wV-4" style="edgeStyle=orthogonalEdgeStyle;rounded=0;orthogonalLoop=1;jettySize=auto;html=1;exitX=0.5;exitY=1;exitDx=0;exitDy=0;" parent="WIyWlLk6GJQsqaUBKTNV-1" source="2BhynT_DfsQ55NkdQ-wV-1" target="2BhynT_DfsQ55NkdQ-wV-2" edge="1">
          <mxGeometry relative="1" as="geometry" />
        </mxCell>
        <mxCell id="2BhynT_DfsQ55NkdQ-wV-1" value="INPUT username,password" style="shape=parallelogram;perimeter=parallelogramPerimeter;whiteSpace=wrap;html=1;fixedSize=1;" parent="WIyWlLk6GJQsqaUBKTNV-1" vertex="1">
          <mxGeometry x="510" y="180" width="190" height="40" as="geometry" />
        </mxCell>
        <mxCell id="XJaJeUywvs3xGksn9VUW-0" style="edgeStyle=orthogonalEdgeStyle;rounded=0;orthogonalLoop=1;jettySize=auto;html=1;exitX=1;exitY=0.5;exitDx=0;exitDy=0;" edge="1" parent="WIyWlLk6GJQsqaUBKTNV-1" source="2BhynT_DfsQ55NkdQ-wV-2">
          <mxGeometry relative="1" as="geometry">
            <mxPoint x="605" y="160" as="targetPoint" />
            <Array as="points">
              <mxPoint x="750" y="290" />
              <mxPoint x="750" y="160" />
            </Array>
          </mxGeometry>
        </mxCell>
        <mxCell id="XJaJeUywvs3xGksn9VUW-4" style="edgeStyle=orthogonalEdgeStyle;rounded=0;orthogonalLoop=1;jettySize=auto;html=1;exitX=0;exitY=0.5;exitDx=0;exitDy=0;entryX=0.5;entryY=0;entryDx=0;entryDy=0;" edge="1" parent="WIyWlLk6GJQsqaUBKTNV-1" source="2BhynT_DfsQ55NkdQ-wV-2" target="2BhynT_DfsQ55NkdQ-wV-10">
          <mxGeometry relative="1" as="geometry">
            <mxPoint x="468.75" y="290" as="targetPoint" />
          </mxGeometry>
        </mxCell>
        <mxCell id="2BhynT_DfsQ55NkdQ-wV-2" value="Username dan password sah?" style="rhombus;whiteSpace=wrap;html=1;" parent="WIyWlLk6GJQsqaUBKTNV-1" vertex="1">
          <mxGeometry x="540" y="250" width="130" height="80" as="geometry" />
        </mxCell>
        <mxCell id="2BhynT_DfsQ55NkdQ-wV-12" style="edgeStyle=orthogonalEdgeStyle;rounded=0;orthogonalLoop=1;jettySize=auto;html=1;exitX=0.5;exitY=1;exitDx=0;exitDy=0;entryX=0.5;entryY=0;entryDx=0;entryDy=0;" parent="WIyWlLk6GJQsqaUBKTNV-1" source="2BhynT_DfsQ55NkdQ-wV-10" target="2BhynT_DfsQ55NkdQ-wV-11" edge="1">
          <mxGeometry relative="1" as="geometry">
            <mxPoint x="310" y="580" as="targetPoint" />
          </mxGeometry>
        </mxCell>
        <mxCell id="2BhynT_DfsQ55NkdQ-wV-10" value="OUTPUT MENU" style="shape=parallelogram;perimeter=parallelogramPerimeter;whiteSpace=wrap;html=1;fixedSize=1;" parent="WIyWlLk6GJQsqaUBKTNV-1" vertex="1">
          <mxGeometry x="370" y="310" width="120" height="50" as="geometry" />
        </mxCell>
        <mxCell id="2BhynT_DfsQ55NkdQ-wV-16" style="edgeStyle=orthogonalEdgeStyle;rounded=0;orthogonalLoop=1;jettySize=auto;html=1;exitX=0.5;exitY=1;exitDx=0;exitDy=0;entryX=0.5;entryY=0;entryDx=0;entryDy=0;" parent="WIyWlLk6GJQsqaUBKTNV-1" source="2BhynT_DfsQ55NkdQ-wV-11" target="2BhynT_DfsQ55NkdQ-wV-14" edge="1">
          <mxGeometry relative="1" as="geometry" />
        </mxCell>
        <mxCell id="2BhynT_DfsQ55NkdQ-wV-11" value="INPUT nama pertandingan" style="shape=parallelogram;perimeter=parallelogramPerimeter;whiteSpace=wrap;html=1;fixedSize=1;" parent="WIyWlLk6GJQsqaUBKTNV-1" vertex="1">
          <mxGeometry x="341.25" y="400" width="177.5" height="55" as="geometry" />
        </mxCell>
        <mxCell id="XJaJeUywvs3xGksn9VUW-3" style="edgeStyle=orthogonalEdgeStyle;rounded=0;orthogonalLoop=1;jettySize=auto;html=1;exitX=1;exitY=0.5;exitDx=0;exitDy=0;entryX=0.5;entryY=0;entryDx=0;entryDy=0;" edge="1" parent="WIyWlLk6GJQsqaUBKTNV-1" source="2BhynT_DfsQ55NkdQ-wV-14" target="XJaJeUywvs3xGksn9VUW-2">
          <mxGeometry relative="1" as="geometry">
            <mxPoint x="560" y="560" as="targetPoint" />
          </mxGeometry>
        </mxCell>
        <mxCell id="XJaJeUywvs3xGksn9VUW-7" style="edgeStyle=orthogonalEdgeStyle;rounded=0;orthogonalLoop=1;jettySize=auto;html=1;exitX=0;exitY=0.5;exitDx=0;exitDy=0;entryX=0.5;entryY=0;entryDx=0;entryDy=0;" edge="1" parent="WIyWlLk6GJQsqaUBKTNV-1" source="2BhynT_DfsQ55NkdQ-wV-14" target="XJaJeUywvs3xGksn9VUW-6">
          <mxGeometry relative="1" as="geometry" />
        </mxCell>
        <mxCell id="2BhynT_DfsQ55NkdQ-wV-14" value="Pertandingan wujud?" style="rhombus;whiteSpace=wrap;html=1;" parent="WIyWlLk6GJQsqaUBKTNV-1" vertex="1">
          <mxGeometry x="352.5" y="490" width="155" height="80" as="geometry" />
        </mxCell>
        <mxCell id="2BhynT_DfsQ55NkdQ-wV-20" value="&lt;div&gt;Tidak&lt;/div&gt;" style="text;html=1;strokeColor=none;fillColor=none;align=center;verticalAlign=middle;whiteSpace=wrap;rounded=0;" parent="WIyWlLk6GJQsqaUBKTNV-1" vertex="1">
          <mxGeometry x="310" y="490" width="60" height="30" as="geometry" />
        </mxCell>
        <mxCell id="2BhynT_DfsQ55NkdQ-wV-21" value="Ya" style="text;html=1;strokeColor=none;fillColor=none;align=center;verticalAlign=middle;whiteSpace=wrap;rounded=0;" parent="WIyWlLk6GJQsqaUBKTNV-1" vertex="1">
          <mxGeometry x="490" y="490" width="60" height="30" as="geometry" />
        </mxCell>
        <mxCell id="2BhynT_DfsQ55NkdQ-wV-22" value="Ya" style="text;html=1;strokeColor=none;fillColor=none;align=center;verticalAlign=middle;whiteSpace=wrap;rounded=0;" parent="WIyWlLk6GJQsqaUBKTNV-1" vertex="1">
          <mxGeometry x="510" y="240" width="60" height="30" as="geometry" />
        </mxCell>
        <mxCell id="XJaJeUywvs3xGksn9VUW-13" style="edgeStyle=orthogonalEdgeStyle;rounded=0;orthogonalLoop=1;jettySize=auto;html=1;exitX=0.5;exitY=1;exitDx=0;exitDy=0;entryX=0.5;entryY=0;entryDx=0;entryDy=0;" edge="1" parent="WIyWlLk6GJQsqaUBKTNV-1" source="XJaJeUywvs3xGksn9VUW-2" target="XJaJeUywvs3xGksn9VUW-11">
          <mxGeometry relative="1" as="geometry" />
        </mxCell>
        <mxCell id="XJaJeUywvs3xGksn9VUW-2" value="OUTPUT Menu Pertandingan" style="shape=parallelogram;perimeter=parallelogramPerimeter;whiteSpace=wrap;html=1;fixedSize=1;" vertex="1" parent="WIyWlLk6GJQsqaUBKTNV-1">
          <mxGeometry x="490" y="600" width="120" height="50" as="geometry" />
        </mxCell>
        <mxCell id="RrhzTNJWd6w1T5RuUDGI-2" style="edgeStyle=orthogonalEdgeStyle;rounded=0;orthogonalLoop=1;jettySize=auto;html=1;exitX=1;exitY=0.5;exitDx=0;exitDy=0;" edge="1" parent="WIyWlLk6GJQsqaUBKTNV-1" source="XJaJeUywvs3xGksn9VUW-6">
          <mxGeometry relative="1" as="geometry">
            <mxPoint x="550" y="580" as="targetPoint" />
            <Array as="points">
              <mxPoint x="343" y="580" />
              <mxPoint x="550" y="580" />
            </Array>
          </mxGeometry>
        </mxCell>
        <mxCell id="XJaJeUywvs3xGksn9VUW-6" value="&lt;div&gt;INPUT nama pertandingan,&lt;/div&gt;&lt;div&gt;masa dan tempat&lt;br&gt;&lt;/div&gt;" style="shape=parallelogram;perimeter=parallelogramPerimeter;whiteSpace=wrap;html=1;fixedSize=1;" vertex="1" parent="WIyWlLk6GJQsqaUBKTNV-1">
          <mxGeometry x="170" y="560" width="182.5" height="60" as="geometry" />
        </mxCell>
        <mxCell id="XJaJeUywvs3xGksn9VUW-15" style="edgeStyle=orthogonalEdgeStyle;rounded=0;orthogonalLoop=1;jettySize=auto;html=1;exitX=0.5;exitY=1;exitDx=0;exitDy=0;" edge="1" parent="WIyWlLk6GJQsqaUBKTNV-1" source="XJaJeUywvs3xGksn9VUW-11" target="XJaJeUywvs3xGksn9VUW-14">
          <mxGeometry relative="1" as="geometry" />
        </mxCell>
        <mxCell id="XJaJeUywvs3xGksn9VUW-11" value="INPUT nama peserta" style="shape=parallelogram;perimeter=parallelogramPerimeter;whiteSpace=wrap;html=1;fixedSize=1;" vertex="1" parent="WIyWlLk6GJQsqaUBKTNV-1">
          <mxGeometry x="362.5" y="700" width="150" height="60" as="geometry" />
        </mxCell>
        <mxCell id="XJaJeUywvs3xGksn9VUW-21" style="edgeStyle=orthogonalEdgeStyle;rounded=0;orthogonalLoop=1;jettySize=auto;html=1;exitX=0;exitY=0.5;exitDx=0;exitDy=0;entryX=0.5;entryY=0;entryDx=0;entryDy=0;" edge="1" parent="WIyWlLk6GJQsqaUBKTNV-1" source="XJaJeUywvs3xGksn9VUW-14" target="XJaJeUywvs3xGksn9VUW-16">
          <mxGeometry relative="1" as="geometry" />
        </mxCell>
        <mxCell id="RrhzTNJWd6w1T5RuUDGI-13" style="edgeStyle=orthogonalEdgeStyle;rounded=0;orthogonalLoop=1;jettySize=auto;html=1;exitX=1;exitY=0.5;exitDx=0;exitDy=0;entryX=0.5;entryY=0;entryDx=0;entryDy=0;" edge="1" parent="WIyWlLk6GJQsqaUBKTNV-1" source="XJaJeUywvs3xGksn9VUW-14" target="RrhzTNJWd6w1T5RuUDGI-3">
          <mxGeometry relative="1" as="geometry" />
        </mxCell>
        <mxCell id="XJaJeUywvs3xGksn9VUW-14" value="Peserta wujud?" style="rhombus;whiteSpace=wrap;html=1;" vertex="1" parent="WIyWlLk6GJQsqaUBKTNV-1">
          <mxGeometry x="360" y="790" width="155" height="80" as="geometry" />
        </mxCell>
        <mxCell id="XJaJeUywvs3xGksn9VUW-16" value="&lt;div&gt;INPUT kad pengenalan dan nama peserta &lt;br&gt;&lt;/div&gt;" style="shape=parallelogram;perimeter=parallelogramPerimeter;whiteSpace=wrap;html=1;fixedSize=1;" vertex="1" parent="WIyWlLk6GJQsqaUBKTNV-1">
          <mxGeometry x="170" y="860" width="182.5" height="60" as="geometry" />
        </mxCell>
        <mxCell id="XJaJeUywvs3xGksn9VUW-18" value="&lt;div&gt;Tidak&lt;/div&gt;" style="text;html=1;strokeColor=none;fillColor=none;align=center;verticalAlign=middle;whiteSpace=wrap;rounded=0;" vertex="1" parent="WIyWlLk6GJQsqaUBKTNV-1">
          <mxGeometry x="327.5" y="780" width="60" height="30" as="geometry" />
        </mxCell>
        <mxCell id="XJaJeUywvs3xGksn9VUW-19" value="Ya" style="text;html=1;strokeColor=none;fillColor=none;align=center;verticalAlign=middle;whiteSpace=wrap;rounded=0;" vertex="1" parent="WIyWlLk6GJQsqaUBKTNV-1">
          <mxGeometry x="500" y="780" width="60" height="30" as="geometry" />
        </mxCell>
        <mxCell id="RrhzTNJWd6w1T5RuUDGI-16" style="edgeStyle=orthogonalEdgeStyle;rounded=0;orthogonalLoop=1;jettySize=auto;html=1;exitX=0.5;exitY=1;exitDx=0;exitDy=0;" edge="1" parent="WIyWlLk6GJQsqaUBKTNV-1" source="RrhzTNJWd6w1T5RuUDGI-3" target="RrhzTNJWd6w1T5RuUDGI-15">
          <mxGeometry relative="1" as="geometry" />
        </mxCell>
        <mxCell id="RrhzTNJWd6w1T5RuUDGI-17" style="edgeStyle=orthogonalEdgeStyle;rounded=0;orthogonalLoop=1;jettySize=auto;html=1;exitX=0;exitY=0.5;exitDx=0;exitDy=0;entryX=0.54;entryY=0.033;entryDx=0;entryDy=0;entryPerimeter=0;" edge="1" parent="WIyWlLk6GJQsqaUBKTNV-1" source="RrhzTNJWd6w1T5RuUDGI-3" target="RrhzTNJWd6w1T5RuUDGI-5">
          <mxGeometry relative="1" as="geometry" />
        </mxCell>
        <mxCell id="RrhzTNJWd6w1T5RuUDGI-3" value="Keputusan wujud?" style="rhombus;whiteSpace=wrap;html=1;" vertex="1" parent="WIyWlLk6GJQsqaUBKTNV-1">
          <mxGeometry x="535" y="860" width="155" height="80" as="geometry" />
        </mxCell>
        <mxCell id="RrhzTNJWd6w1T5RuUDGI-19" style="edgeStyle=orthogonalEdgeStyle;rounded=0;orthogonalLoop=1;jettySize=auto;html=1;exitX=0.5;exitY=1;exitDx=0;exitDy=0;entryX=0;entryY=0.5;entryDx=0;entryDy=0;" edge="1" parent="WIyWlLk6GJQsqaUBKTNV-1" source="RrhzTNJWd6w1T5RuUDGI-5" target="RrhzTNJWd6w1T5RuUDGI-15">
          <mxGeometry relative="1" as="geometry">
            <Array as="points">
              <mxPoint x="459" y="1040" />
              <mxPoint x="528" y="1040" />
            </Array>
          </mxGeometry>
        </mxCell>
        <mxCell id="RrhzTNJWd6w1T5RuUDGI-5" value="&lt;div&gt;INPUT keputusan peserta&lt;br&gt;&lt;/div&gt;" style="shape=parallelogram;perimeter=parallelogramPerimeter;whiteSpace=wrap;html=1;fixedSize=1;" vertex="1" parent="WIyWlLk6GJQsqaUBKTNV-1">
          <mxGeometry x="367.5" y="935" width="182.5" height="60" as="geometry" />
        </mxCell>
        <mxCell id="RrhzTNJWd6w1T5RuUDGI-9" value="&lt;div&gt;Tidak&lt;/div&gt;" style="text;html=1;strokeColor=none;fillColor=none;align=center;verticalAlign=middle;whiteSpace=wrap;rounded=0;" vertex="1" parent="WIyWlLk6GJQsqaUBKTNV-1">
          <mxGeometry x="660" y="240" width="60" height="30" as="geometry" />
        </mxCell>
        <mxCell id="RrhzTNJWd6w1T5RuUDGI-11" value="Ya" style="text;html=1;strokeColor=none;fillColor=none;align=center;verticalAlign=middle;whiteSpace=wrap;rounded=0;" vertex="1" parent="WIyWlLk6GJQsqaUBKTNV-1">
          <mxGeometry x="620" y="950" width="60" height="30" as="geometry" />
        </mxCell>
        <mxCell id="RrhzTNJWd6w1T5RuUDGI-15" value="OUTPUT Keputusan peserta " style="shape=parallelogram;perimeter=parallelogramPerimeter;whiteSpace=wrap;html=1;fixedSize=1;" vertex="1" parent="WIyWlLk6GJQsqaUBKTNV-1">
          <mxGeometry x="517.5" y="1020" width="190" height="50" as="geometry" />
        </mxCell>
        <mxCell id="RrhzTNJWd6w1T5RuUDGI-18" value="&lt;div&gt;Tidak&lt;/div&gt;" style="text;html=1;strokeColor=none;fillColor=none;align=center;verticalAlign=middle;whiteSpace=wrap;rounded=0;" vertex="1" parent="WIyWlLk6GJQsqaUBKTNV-1">
          <mxGeometry x="475" y="870" width="60" height="30" as="geometry" />
        </mxCell>
        <mxCell id="qsoDnjDD26J5uIRlczHR-4" style="edgeStyle=orthogonalEdgeStyle;rounded=0;orthogonalLoop=1;jettySize=auto;html=1;exitX=0.5;exitY=1;exitDx=0;exitDy=0;entryX=0.5;entryY=0;entryDx=0;entryDy=0;" edge="1" parent="WIyWlLk6GJQsqaUBKTNV-1" source="qsoDnjDD26J5uIRlczHR-0" target="2BhynT_DfsQ55NkdQ-wV-1">
          <mxGeometry relative="1" as="geometry" />
        </mxCell>
        <mxCell id="qsoDnjDD26J5uIRlczHR-0" value="OUTPUT Keputusan semua peserta mengikut pertandingan" style="shape=parallelogram;perimeter=parallelogramPerimeter;whiteSpace=wrap;html=1;fixedSize=1;" vertex="1" parent="WIyWlLk6GJQsqaUBKTNV-1">
          <mxGeometry x="488.75" y="90" width="232.5" height="50" as="geometry" />
        </mxCell>
      </root>
    </mxGraphModel>
  </diagram>
  <diagram id="dnWs6aASMro2xbhZ9vr7" name="Page-2">
    <mxGraphModel dx="1422" dy="788" grid="1" gridSize="10" guides="1" tooltips="1" connect="1" arrows="1" fold="1" page="1" pageScale="1" pageWidth="850" pageHeight="1100" math="0" shadow="0">
      <root>
        <mxCell id="juJgoHJ59R_boZb0UTi5-0" />
        <mxCell id="juJgoHJ59R_boZb0UTi5-1" parent="juJgoHJ59R_boZb0UTi5-0" />
        <mxCell id="eJuQvx9KX0Evx8GOAH2Y-0" value="HAKIM" style="rounded=0;whiteSpace=wrap;html=1;" parent="juJgoHJ59R_boZb0UTi5-1" vertex="1">
          <mxGeometry x="200" y="190" width="120" height="60" as="geometry" />
        </mxCell>
        <mxCell id="eJuQvx9KX0Evx8GOAH2Y-1" value="menilai" style="rhombus;whiteSpace=wrap;html=1;" parent="juJgoHJ59R_boZb0UTi5-1" vertex="1">
          <mxGeometry x="365" y="185" width="120" height="70" as="geometry" />
        </mxCell>
        <mxCell id="eJuQvx9KX0Evx8GOAH2Y-2" value="&lt;u&gt;IDHakim&lt;/u&gt;" style="ellipse;whiteSpace=wrap;html=1;" parent="juJgoHJ59R_boZb0UTi5-1" vertex="1">
          <mxGeometry x="45" y="100" width="120" height="50" as="geometry" />
        </mxCell>
        <mxCell id="eJuQvx9KX0Evx8GOAH2Y-3" value="" style="endArrow=none;html=1;rounded=0;entryX=0;entryY=0.5;entryDx=0;entryDy=0;exitX=1;exitY=1;exitDx=0;exitDy=0;" parent="juJgoHJ59R_boZb0UTi5-1" source="eJuQvx9KX0Evx8GOAH2Y-2" target="eJuQvx9KX0Evx8GOAH2Y-0" edge="1">
          <mxGeometry width="50" height="50" relative="1" as="geometry">
            <mxPoint x="385" y="10" as="sourcePoint" />
            <mxPoint x="435" y="-40" as="targetPoint" />
          </mxGeometry>
        </mxCell>
        <mxCell id="eJuQvx9KX0Evx8GOAH2Y-4" value="&lt;div&gt;NamaHakim&lt;/div&gt;" style="ellipse;whiteSpace=wrap;html=1;" parent="juJgoHJ59R_boZb0UTi5-1" vertex="1">
          <mxGeometry x="35" y="200" width="120" height="50" as="geometry" />
        </mxCell>
        <mxCell id="eJuQvx9KX0Evx8GOAH2Y-5" value="" style="endArrow=none;html=1;rounded=0;entryX=0;entryY=0.5;entryDx=0;entryDy=0;exitX=1;exitY=0.5;exitDx=0;exitDy=0;" parent="juJgoHJ59R_boZb0UTi5-1" source="eJuQvx9KX0Evx8GOAH2Y-4" target="eJuQvx9KX0Evx8GOAH2Y-0" edge="1">
          <mxGeometry width="50" height="50" relative="1" as="geometry">
            <mxPoint x="157.42640687119297" y="152.6776695296635" as="sourcePoint" />
            <mxPoint x="215" y="230" as="targetPoint" />
          </mxGeometry>
        </mxCell>
        <mxCell id="eJuQvx9KX0Evx8GOAH2Y-6" value="" style="endArrow=none;html=1;rounded=0;entryX=0;entryY=0.5;entryDx=0;entryDy=0;exitX=1;exitY=0.5;exitDx=0;exitDy=0;" parent="juJgoHJ59R_boZb0UTi5-1" source="eJuQvx9KX0Evx8GOAH2Y-0" target="eJuQvx9KX0Evx8GOAH2Y-1" edge="1">
          <mxGeometry width="50" height="50" relative="1" as="geometry">
            <mxPoint x="165" y="235" as="sourcePoint" />
            <mxPoint x="215" y="230" as="targetPoint" />
          </mxGeometry>
        </mxCell>
        <mxCell id="eJuQvx9KX0Evx8GOAH2Y-7" value="PESERTA" style="rounded=0;whiteSpace=wrap;html=1;" parent="juJgoHJ59R_boZb0UTi5-1" vertex="1">
          <mxGeometry x="525" y="190" width="120" height="60" as="geometry" />
        </mxCell>
        <mxCell id="eJuQvx9KX0Evx8GOAH2Y-8" value="" style="endArrow=none;html=1;rounded=0;entryX=0;entryY=0.5;entryDx=0;entryDy=0;exitX=1;exitY=0.5;exitDx=0;exitDy=0;" parent="juJgoHJ59R_boZb0UTi5-1" source="eJuQvx9KX0Evx8GOAH2Y-1" target="eJuQvx9KX0Evx8GOAH2Y-7" edge="1">
          <mxGeometry width="50" height="50" relative="1" as="geometry">
            <mxPoint x="335" y="230" as="sourcePoint" />
            <mxPoint x="370" y="230" as="targetPoint" />
          </mxGeometry>
        </mxCell>
        <mxCell id="eJuQvx9KX0Evx8GOAH2Y-9" value="&lt;u&gt;KadPengenalanPeserta&lt;br&gt;&lt;/u&gt;" style="ellipse;whiteSpace=wrap;html=1;" parent="juJgoHJ59R_boZb0UTi5-1" vertex="1">
          <mxGeometry x="670" y="120" width="145" height="50" as="geometry" />
        </mxCell>
        <mxCell id="eJuQvx9KX0Evx8GOAH2Y-10" value="" style="endArrow=none;html=1;rounded=0;entryX=1;entryY=0.5;entryDx=0;entryDy=0;exitX=0;exitY=1;exitDx=0;exitDy=0;" parent="juJgoHJ59R_boZb0UTi5-1" source="eJuQvx9KX0Evx8GOAH2Y-9" target="eJuQvx9KX0Evx8GOAH2Y-7" edge="1">
          <mxGeometry width="50" height="50" relative="1" as="geometry">
            <mxPoint x="157.42640687119297" y="152.6776695296635" as="sourcePoint" />
            <mxPoint x="215" y="230" as="targetPoint" />
          </mxGeometry>
        </mxCell>
        <mxCell id="eJuQvx9KX0Evx8GOAH2Y-11" value="&lt;div&gt;NamaPeserta&lt;/div&gt;" style="ellipse;whiteSpace=wrap;html=1;" parent="juJgoHJ59R_boZb0UTi5-1" vertex="1">
          <mxGeometry x="695" y="200" width="120" height="50" as="geometry" />
        </mxCell>
        <mxCell id="eJuQvx9KX0Evx8GOAH2Y-12" value="" style="endArrow=none;html=1;rounded=0;entryX=0;entryY=0.5;entryDx=0;entryDy=0;exitX=1;exitY=0.5;exitDx=0;exitDy=0;" parent="juJgoHJ59R_boZb0UTi5-1" source="eJuQvx9KX0Evx8GOAH2Y-7" target="eJuQvx9KX0Evx8GOAH2Y-11" edge="1">
          <mxGeometry width="50" height="50" relative="1" as="geometry">
            <mxPoint x="495" y="230" as="sourcePoint" />
            <mxPoint x="535" y="230" as="targetPoint" />
          </mxGeometry>
        </mxCell>
        <mxCell id="eJuQvx9KX0Evx8GOAH2Y-13" value="PERTANDINGAN" style="rounded=0;whiteSpace=wrap;html=1;" parent="juJgoHJ59R_boZb0UTi5-1" vertex="1">
          <mxGeometry x="200" y="395" width="120" height="60" as="geometry" />
        </mxCell>
        <mxCell id="eJuQvx9KX0Evx8GOAH2Y-14" value="" style="endArrow=none;html=1;rounded=0;exitX=0.5;exitY=1;exitDx=0;exitDy=0;entryX=0.5;entryY=0;entryDx=0;entryDy=0;" parent="juJgoHJ59R_boZb0UTi5-1" source="eJuQvx9KX0Evx8GOAH2Y-0" target="eJuQvx9KX0Evx8GOAH2Y-15" edge="1">
          <mxGeometry width="50" height="50" relative="1" as="geometry">
            <mxPoint x="335" y="230" as="sourcePoint" />
            <mxPoint x="355" y="270" as="targetPoint" />
          </mxGeometry>
        </mxCell>
        <mxCell id="eJuQvx9KX0Evx8GOAH2Y-15" value="mencipta" style="rhombus;whiteSpace=wrap;html=1;" parent="juJgoHJ59R_boZb0UTi5-1" vertex="1">
          <mxGeometry x="200" y="290" width="120" height="70" as="geometry" />
        </mxCell>
        <mxCell id="eJuQvx9KX0Evx8GOAH2Y-17" value="PUSINGAN" style="rounded=0;whiteSpace=wrap;html=1;" parent="juJgoHJ59R_boZb0UTi5-1" vertex="1">
          <mxGeometry x="525" y="395" width="120" height="60" as="geometry" />
        </mxCell>
        <mxCell id="eJuQvx9KX0Evx8GOAH2Y-19" value="" style="endArrow=none;html=1;rounded=0;exitX=1;exitY=0.5;exitDx=0;exitDy=0;entryX=0;entryY=0.5;entryDx=0;entryDy=0;" parent="juJgoHJ59R_boZb0UTi5-1" source="eJuQvx9KX0Evx8GOAH2Y-13" target="eJuQvx9KX0Evx8GOAH2Y-20" edge="1">
          <mxGeometry width="50" height="50" relative="1" as="geometry">
            <mxPoint x="275" y="260" as="sourcePoint" />
            <mxPoint x="470" y="360" as="targetPoint" />
          </mxGeometry>
        </mxCell>
        <mxCell id="eJuQvx9KX0Evx8GOAH2Y-20" value="&lt;div&gt;mempunyai&lt;/div&gt;" style="rhombus;whiteSpace=wrap;html=1;" parent="juJgoHJ59R_boZb0UTi5-1" vertex="1">
          <mxGeometry x="365" y="390" width="120" height="70" as="geometry" />
        </mxCell>
        <mxCell id="eJuQvx9KX0Evx8GOAH2Y-22" value="Masa" style="ellipse;whiteSpace=wrap;html=1;" parent="juJgoHJ59R_boZb0UTi5-1" vertex="1">
          <mxGeometry x="190" y="525" width="120" height="50" as="geometry" />
        </mxCell>
        <mxCell id="eJuQvx9KX0Evx8GOAH2Y-23" value="&lt;u&gt;IDPertandingan&lt;/u&gt;" style="ellipse;whiteSpace=wrap;html=1;" parent="juJgoHJ59R_boZb0UTi5-1" vertex="1">
          <mxGeometry x="80" y="475" width="120" height="50" as="geometry" />
        </mxCell>
        <mxCell id="eJuQvx9KX0Evx8GOAH2Y-24" value="&lt;div&gt;&lt;u&gt;IDPusingan&lt;/u&gt;&lt;/div&gt;" style="ellipse;whiteSpace=wrap;html=1;" parent="juJgoHJ59R_boZb0UTi5-1" vertex="1">
          <mxGeometry x="660" y="490" width="120" height="50" as="geometry" />
        </mxCell>
        <mxCell id="eJuQvx9KX0Evx8GOAH2Y-26" value="" style="endArrow=none;html=1;rounded=0;exitX=0.5;exitY=1;exitDx=0;exitDy=0;entryX=1;entryY=0.5;entryDx=0;entryDy=0;" parent="juJgoHJ59R_boZb0UTi5-1" source="eJuQvx9KX0Evx8GOAH2Y-13" target="eJuQvx9KX0Evx8GOAH2Y-23" edge="1">
          <mxGeometry width="50" height="50" relative="1" as="geometry">
            <mxPoint x="270" y="260" as="sourcePoint" />
            <mxPoint x="250" y="405" as="targetPoint" />
          </mxGeometry>
        </mxCell>
        <mxCell id="eJuQvx9KX0Evx8GOAH2Y-27" value="" style="endArrow=none;html=1;rounded=0;exitX=0.5;exitY=1;exitDx=0;exitDy=0;entryX=0.792;entryY=0.12;entryDx=0;entryDy=0;entryPerimeter=0;" parent="juJgoHJ59R_boZb0UTi5-1" source="eJuQvx9KX0Evx8GOAH2Y-13" target="eJuQvx9KX0Evx8GOAH2Y-22" edge="1">
          <mxGeometry width="50" height="50" relative="1" as="geometry">
            <mxPoint x="372.96000000000004" y="471.02" as="sourcePoint" />
            <mxPoint x="180" y="510" as="targetPoint" />
          </mxGeometry>
        </mxCell>
        <mxCell id="eJuQvx9KX0Evx8GOAH2Y-28" value="Tempat" style="ellipse;whiteSpace=wrap;html=1;" parent="juJgoHJ59R_boZb0UTi5-1" vertex="1">
          <mxGeometry x="340" y="525" width="120" height="50" as="geometry" />
        </mxCell>
        <mxCell id="eJuQvx9KX0Evx8GOAH2Y-29" value="" style="endArrow=none;html=1;rounded=0;exitX=0.5;exitY=1;exitDx=0;exitDy=0;entryX=0.383;entryY=0.02;entryDx=0;entryDy=0;entryPerimeter=0;" parent="juJgoHJ59R_boZb0UTi5-1" source="eJuQvx9KX0Evx8GOAH2Y-13" target="eJuQvx9KX0Evx8GOAH2Y-28" edge="1">
          <mxGeometry width="50" height="50" relative="1" as="geometry">
            <mxPoint x="375" y="471.02" as="sourcePoint" />
            <mxPoint x="295.03999999999996" y="541" as="targetPoint" />
          </mxGeometry>
        </mxCell>
        <mxCell id="eJuQvx9KX0Evx8GOAH2Y-30" value="" style="endArrow=none;html=1;rounded=0;exitX=0.5;exitY=1;exitDx=0;exitDy=0;" parent="juJgoHJ59R_boZb0UTi5-1" source="eJuQvx9KX0Evx8GOAH2Y-17" target="eJuQvx9KX0Evx8GOAH2Y-24" edge="1">
          <mxGeometry width="50" height="50" relative="1" as="geometry">
            <mxPoint x="390" y="470" as="sourcePoint" />
            <mxPoint x="395.96000000000004" y="536" as="targetPoint" />
          </mxGeometry>
        </mxCell>
        <mxCell id="eJuQvx9KX0Evx8GOAH2Y-31" value="" style="endArrow=none;html=1;rounded=0;entryX=0.5;entryY=0;entryDx=0;entryDy=0;exitX=0.5;exitY=1;exitDx=0;exitDy=0;" parent="juJgoHJ59R_boZb0UTi5-1" source="eJuQvx9KX0Evx8GOAH2Y-15" target="eJuQvx9KX0Evx8GOAH2Y-13" edge="1">
          <mxGeometry width="50" height="50" relative="1" as="geometry">
            <mxPoint x="450" y="440" as="sourcePoint" />
            <mxPoint x="470" y="440" as="targetPoint" />
          </mxGeometry>
        </mxCell>
        <mxCell id="eJuQvx9KX0Evx8GOAH2Y-32" value="" style="endArrow=none;html=1;rounded=0;exitX=1;exitY=0.5;exitDx=0;exitDy=0;entryX=0;entryY=0.5;entryDx=0;entryDy=0;" parent="juJgoHJ59R_boZb0UTi5-1" source="eJuQvx9KX0Evx8GOAH2Y-20" target="eJuQvx9KX0Evx8GOAH2Y-17" edge="1">
          <mxGeometry width="50" height="50" relative="1" as="geometry">
            <mxPoint x="540" y="510" as="sourcePoint" />
            <mxPoint x="560" y="510" as="targetPoint" />
          </mxGeometry>
        </mxCell>
        <mxCell id="eJuQvx9KX0Evx8GOAH2Y-33" value="&lt;div&gt;mempunyai&lt;/div&gt;" style="rhombus;whiteSpace=wrap;html=1;" parent="juJgoHJ59R_boZb0UTi5-1" vertex="1">
          <mxGeometry x="525" y="290" width="120" height="70" as="geometry" />
        </mxCell>
        <mxCell id="eJuQvx9KX0Evx8GOAH2Y-36" value="" style="endArrow=none;html=1;rounded=0;exitX=0.5;exitY=0;exitDx=0;exitDy=0;entryX=0.5;entryY=1;entryDx=0;entryDy=0;" parent="juJgoHJ59R_boZb0UTi5-1" source="eJuQvx9KX0Evx8GOAH2Y-17" target="eJuQvx9KX0Evx8GOAH2Y-33" edge="1">
          <mxGeometry width="50" height="50" relative="1" as="geometry">
            <mxPoint x="450" y="440" as="sourcePoint" />
            <mxPoint x="470" y="440" as="targetPoint" />
          </mxGeometry>
        </mxCell>
        <mxCell id="eJuQvx9KX0Evx8GOAH2Y-37" value="" style="endArrow=none;html=1;rounded=0;exitX=0.5;exitY=0;exitDx=0;exitDy=0;entryX=0.5;entryY=1;entryDx=0;entryDy=0;" parent="juJgoHJ59R_boZb0UTi5-1" source="eJuQvx9KX0Evx8GOAH2Y-33" target="eJuQvx9KX0Evx8GOAH2Y-7" edge="1">
          <mxGeometry width="50" height="50" relative="1" as="geometry">
            <mxPoint x="670" y="410" as="sourcePoint" />
            <mxPoint x="680" y="370" as="targetPoint" />
          </mxGeometry>
        </mxCell>
        <mxCell id="eJuQvx9KX0Evx8GOAH2Y-40" value="Markah" style="ellipse;whiteSpace=wrap;html=1;" parent="juJgoHJ59R_boZb0UTi5-1" vertex="1">
          <mxGeometry x="695" y="280" width="120" height="50" as="geometry" />
        </mxCell>
        <mxCell id="eJuQvx9KX0Evx8GOAH2Y-41" value="" style="endArrow=none;html=1;rounded=0;entryX=0.033;entryY=0.3;entryDx=0;entryDy=0;exitX=1;exitY=0.5;exitDx=0;exitDy=0;entryPerimeter=0;" parent="juJgoHJ59R_boZb0UTi5-1" source="eJuQvx9KX0Evx8GOAH2Y-7" target="eJuQvx9KX0Evx8GOAH2Y-40" edge="1">
          <mxGeometry width="50" height="50" relative="1" as="geometry">
            <mxPoint x="655" y="230" as="sourcePoint" />
            <mxPoint x="705" y="235" as="targetPoint" />
          </mxGeometry>
        </mxCell>
        <mxCell id="eJuQvx9KX0Evx8GOAH2Y-42" value="Pusingan ke berapa" style="ellipse;whiteSpace=wrap;html=1;" parent="juJgoHJ59R_boZb0UTi5-1" vertex="1">
          <mxGeometry x="695" y="400" width="120" height="50" as="geometry" />
        </mxCell>
        <mxCell id="eJuQvx9KX0Evx8GOAH2Y-43" value="" style="endArrow=none;html=1;rounded=0;exitX=1;exitY=0.5;exitDx=0;exitDy=0;entryX=0;entryY=0.5;entryDx=0;entryDy=0;" parent="juJgoHJ59R_boZb0UTi5-1" source="eJuQvx9KX0Evx8GOAH2Y-17" target="eJuQvx9KX0Evx8GOAH2Y-42" edge="1">
          <mxGeometry width="50" height="50" relative="1" as="geometry">
            <mxPoint x="595" y="405" as="sourcePoint" />
            <mxPoint x="595" y="370" as="targetPoint" />
          </mxGeometry>
        </mxCell>
      </root>
    </mxGraphModel>
  </diagram>
</mxfile>
